<svg height="297mm" viewBox="0 0 210 297" width="210mm" xmlns="http://www.w3.org/2000/svg"><g fill="#e87700" fill-opacity=".995984" stroke="#000" stroke-width="7.55906" transform="matrix(.26458333 0 0 .26458333 23.7182 74.786793)"><path d="m396.44 241.67c-18.24-24.1-22.44-42.55-37.92-53.28-9.67-6.7-26.82-8.27-38.47-7.33a88.85 88.85 0 0 1 -14.59 0c-11.65-.94-28.8.63-38.46 7.33-15.48 10.73-19.68 29.18-37.92 53.28-50.81 67.12-83.51 164.55 69.46 191.24a82.76 82.76 0 0 0 28.43 0c152.97-26.69 120.27-124.12 69.47-191.24z" fill="#e87700" fill-opacity=".995984" stroke-linecap="round" stroke-linejoin="round"/><path d="m312.81 376.17c.65 0 1 .55 1.31 1.12 4.64 8.21 9.75 7.16 18.54 7.43s2.46 21.57-9.6 32.67a15.81 15.81 0 0 1 -10.74 4.06h-.11a13.31 13.31 0 0 1 -7.94-2.57c-13.37-9.95-20.62-34.66-11.39-34.16 8.19.45 15.87.21 18.54-7.43a1.45 1.45 0 0 1 1.31-1.12z" fill="#e81300" fill-opacity=".996078"/><path d="m309.81 360.33a6.23 6.23 0 0 0 5.9 0c16.62-9 21.57-16.37 19.74-20-1.44-2.79-4.7-8.07-22.69-7.74-17.2-.33-21.26 5-22.69 7.74-1.84 3.67 3.11 10.98 19.74 20z" fill="#e81300" fill-opacity=".995984"/><path d="m414.56 299.72c-.77 24.76-21.56 45.22-44.34 44.34-24.31-.94-44.34-20-44.34-44.34a44.54 44.54 0 0 1 44.34-44.34c24.32 0 45.09 20.03 44.34 44.34z" fill="#e87700" fill-opacity=".995984"/><ellipse cx="370.23001" cy="299.72" fill="#1b158a" fill-opacity=".996078" rx="31.4" ry="32.900002"/><circle cx="380.56" cy="286.75" fill="#fff" fill-opacity="1" r="9.32"/><circle cx="362.07001" cy="319.20001" fill="#e87700" fill-opacity=".995984" r="4.08"/><path d="m298.29 299.71c-.77 24.76-21.55 45.21-44.34 44.34-24.3-.94-44.34-20-44.34-44.34a44.55 44.55 0 0 1 44.39-44.34c24.28 0 45.05 20.02 44.29 44.34z" fill="#e87700" fill-opacity=".995984"/><ellipse cx="253.96001" cy="299.71002" fill="#1b158a" fill-opacity=".995984" rx="31.4" ry="32.900002"/><ellipse cx="264.29001" cy="286.74002" fill="#fff" fill-opacity="1" rx="9.320315" ry="9.32"/><g fill="#e87700"><circle cx="245.8" cy="319.19" fill-opacity=".995984" r="4.08"/><path d="m212.5 199.82 14.82 13.05a11.88 11.88 0 0 0 16.52-.79l20-21.38a11.89 11.89 0 0 0 .58-15.59c-18-22.26-53.21-68.09-79-58.74-49.59 18.03-166.72 124.63-153.37 180.32 2.38 9.9 31 49.17 61.52 43.06 44.43-8.9 138.68-175.69 138.68-175.69" fill-opacity=".995984" stroke-linecap="round" stroke-linejoin="round"/><path d="m411.76 199.64-14.85 13a11.9 11.9 0 0 1 -16.52-.84l-20-21.43a11.87 11.87 0 0 1 -.54-15.59c18.05-22.21 53.38-68 79.12-58.54 49.61 18.15 166.47 125 153 180.7-2.4 9.89-31.12 49.09-61.63 42.9-44.42-9-138.24-176-138.24-176z" fill-opacity=".995984" stroke-linecap="round" stroke-linejoin="round"/></g></g></svg>